<svg width="21" height="21" viewBox="0 0 21 21" fill="none" xmlns="http://www.w3.org/2000/svg">
<path d="M10.1979 4.96644C7.30466 4.96644 4.97099 7.30011 4.97099 10.1933C4.97099 13.0865 7.30466 15.4202 10.1979 15.4202C13.0911 15.4202 15.4247 13.0865 15.4247 10.1933C15.4247 7.30011 13.0911 4.96644 10.1979 4.96644ZM10.1979 13.5915C8.3282 13.5915 6.79971 12.0675 6.79971 10.1933C6.79971 8.3191 8.32365 6.79517 10.1979 6.79517C12.0721 6.79517 13.596 8.3191 13.596 10.1933C13.596 12.0675 12.0675 13.5915 10.1979 13.5915V13.5915ZM16.8577 4.75264C16.8577 5.43045 16.3118 5.97178 15.6385 5.97178C14.9607 5.97178 14.4194 5.4259 14.4194 4.75264C14.4194 4.07937 14.9653 3.53349 15.6385 3.53349C16.3118 3.53349 16.8577 4.07937 16.8577 4.75264ZM20.3195 5.98998C20.2422 4.35687 19.8692 2.91026 18.6728 1.71841C17.4809 0.526554 16.0343 0.153531 14.4012 0.0716478C12.718 -0.0238826 7.67313 -0.0238826 5.98998 0.0716478C4.36142 0.148982 2.91481 0.522005 1.71841 1.71386C0.522005 2.90571 0.153531 4.35232 0.0716478 5.98543C-0.0238826 7.66859 -0.0238826 12.7135 0.0716478 14.3967C0.148982 16.0298 0.522005 17.4764 1.71841 18.6682C2.91481 19.8601 4.35687 20.2331 5.98998 20.315C7.67313 20.4105 12.718 20.4105 14.4012 20.315C16.0343 20.2376 17.4809 19.8646 18.6728 18.6682C19.8646 17.4764 20.2377 16.0298 20.3195 14.3967C20.4151 12.7135 20.4151 7.67313 20.3195 5.98998V5.98998ZM18.1451 16.2026C17.7903 17.0942 17.1033 17.7812 16.2072 18.1405C14.8652 18.6728 11.6809 18.5499 10.1979 18.5499C8.71487 18.5499 5.52598 18.6682 4.18855 18.1405C3.29693 17.7857 2.61003 17.0988 2.25065 16.2026C1.71841 14.8607 1.84123 11.6763 1.84123 10.1933C1.84123 8.71032 1.72296 5.52143 2.25065 4.184C2.60548 3.29239 3.29239 2.60548 4.18855 2.2461C5.53053 1.71386 8.71487 1.83668 10.1979 1.83668C11.6809 1.83668 14.8698 1.71841 16.2072 2.2461C17.0988 2.60093 17.7857 3.28784 18.1451 4.184C18.6773 5.52598 18.5545 8.71032 18.5545 10.1933C18.5545 11.6763 18.6773 14.8652 18.1451 16.2026Z" fill="white"/>
</svg>
