<svg width="26" height="20" viewBox="0 0 26 20" fill="none" xmlns="http://www.w3.org/2000/svg">
<path d="M12.7388 4.70701C11.9053 4.70577 11.0983 4.99953 10.4607 5.53627C9.82311 6.07301 9.39604 6.81808 9.25514 7.63953C9.11424 8.46097 9.26861 9.30578 9.6909 10.0243C10.1132 10.7429 10.7762 11.2888 11.5624 11.5653C11.5567 11.6319 11.5567 11.6988 11.5624 11.7653V18.8236C11.5624 19.1356 11.6863 19.4348 11.9069 19.6554C12.1275 19.8761 12.4268 20 12.7388 20C13.0507 20 13.35 19.8761 13.5706 19.6554C13.7912 19.4348 13.9151 19.1356 13.9151 18.8236V11.7653C13.9208 11.6988 13.9208 11.6319 13.9151 11.5653C14.7014 11.2888 15.3643 10.7429 15.7866 10.0243C16.2089 9.30578 16.3633 8.46097 16.2224 7.63953C16.0815 6.81808 15.6544 6.07301 15.0168 5.53627C14.3792 4.99953 13.5722 4.70577 12.7388 4.70701ZM12.7388 9.41254C12.5061 9.41254 12.2786 9.34355 12.0852 9.21429C11.8917 9.08502 11.741 8.9013 11.6519 8.68634C11.5629 8.47139 11.5396 8.23485 11.585 8.00666C11.6304 7.77846 11.7424 7.56885 11.9069 7.40433C12.0714 7.23981 12.2811 7.12777 12.5092 7.08238C12.7374 7.03699 12.974 7.06029 13.1889 7.14932C13.4039 7.23836 13.5876 7.38914 13.7169 7.5826C13.8461 7.77605 13.9151 8.00349 13.9151 8.23616C13.9151 8.54816 13.7912 8.84737 13.5706 9.06799C13.35 9.2886 13.0507 9.41254 12.7388 9.41254ZM2.73949 8.23616C2.77162 7.04512 3.0667 5.87592 3.60361 4.81227C4.14052 3.74863 4.90596 2.81685 5.84514 2.08367C6.08538 1.88399 6.23645 1.59706 6.26513 1.28599C6.29381 0.974928 6.19775 0.665209 5.99807 0.424971C5.8992 0.306018 5.77787 0.207703 5.641 0.135641C5.50414 0.0635781 5.35442 0.0191787 5.20039 0.00497787C4.88933 -0.023702 4.57961 0.0723637 4.33937 0.272041C3.13279 1.22481 2.15248 2.43326 1.469 3.81038C0.785528 5.1875 0.415896 6.69904 0.386719 8.23616C0.415896 9.77328 0.785528 11.2848 1.469 12.6619C2.15248 14.0391 3.13279 15.2475 4.33937 16.2003C4.45832 16.2992 4.59558 16.3736 4.74332 16.4194C4.89105 16.4653 5.04637 16.4815 5.20039 16.4673C5.35442 16.4531 5.50414 16.4087 5.641 16.3367C5.77787 16.2646 5.8992 16.1663 5.99807 16.0473C6.09694 15.9284 6.17141 15.7911 6.21724 15.6434C6.26306 15.4957 6.27933 15.3403 6.26513 15.1863C6.25093 15.0323 6.20653 14.8826 6.13447 14.7457C6.06241 14.6088 5.96409 14.4875 5.84514 14.3886C4.90596 13.6555 4.14052 12.7237 3.60361 11.66C3.0667 10.5964 2.77162 9.4272 2.73949 8.23616Z" fill="white"/>
<path d="M18.197 2.63598C17.9564 2.47606 17.6653 2.41031 17.3792 2.45125C17.0932 2.4922 16.8322 2.63699 16.6461 2.85801C16.46 3.07904 16.3617 3.36083 16.37 3.64966C16.3784 3.93849 16.4927 4.21415 16.6912 4.42409C17.2726 4.87911 17.7468 5.4564 18.0802 6.11507C18.4136 6.77374 18.598 7.49767 18.6205 8.23557C18.598 8.97347 18.4136 9.6974 18.0802 10.3561C17.7468 11.0147 17.2726 11.592 16.6912 12.0471C16.5092 12.2027 16.379 12.4102 16.3181 12.6418C16.2571 12.8734 16.2683 13.1181 16.3502 13.3432C16.432 13.5683 16.5806 13.763 16.7761 13.9014C16.9716 14.0397 17.2046 14.1151 17.4441 14.1175C17.7205 14.1147 17.987 14.0148 18.197 13.8352C19.0458 13.1658 19.7352 12.3162 20.2153 11.3478C20.6955 10.3794 20.9544 9.31633 20.9733 8.23557C20.9544 7.15481 20.6955 6.09176 20.2153 5.12333C19.7352 4.1549 19.0458 3.3053 18.197 2.63598ZM8.92711 2.77715C8.72631 2.54178 8.44087 2.39498 8.13261 2.36856C7.82436 2.34214 7.5181 2.43821 7.28017 2.63598C6.43139 3.3053 5.742 4.1549 5.26185 5.12333C4.7817 6.09176 4.52281 7.15481 4.50391 8.23557C4.52281 9.31633 4.7817 10.3794 5.26185 11.3478C5.742 12.3162 6.43139 13.1658 7.28017 13.8352C7.5181 14.0329 7.82436 14.129 8.13261 14.1026C8.44087 14.0762 8.72631 13.9294 8.92711 13.694C9.12488 13.4561 9.22096 13.1498 9.19454 12.8416C9.16811 12.5333 9.02132 12.2479 8.78594 12.0471C8.2046 11.592 7.73044 11.0147 7.39704 10.3561C7.06364 9.6974 6.87916 8.97347 6.85667 8.23557C6.87916 7.49767 7.06364 6.77374 7.39704 6.11507C7.73044 5.4564 8.2046 4.87911 8.78594 4.42409C9.02132 4.22329 9.16811 3.93785 9.19454 3.62959C9.22096 3.32133 9.12488 3.01508 8.92711 2.77715Z" fill="white"/>
<path d="M21.1378 0.272038C21.0188 0.173168 20.8816 0.0986952 20.7338 0.0528724C20.5861 0.0070496 20.4308 -0.00922629 20.2767 0.00497456C20.1227 0.0191754 19.973 0.0635748 19.8361 0.135637C19.6993 0.2077 19.5779 0.306015 19.4791 0.424968C19.3802 0.543922 19.3057 0.681184 19.2599 0.828919C19.2141 0.976653 19.1978 1.13197 19.212 1.28599C19.2262 1.44002 19.2706 1.58974 19.3427 1.7266C19.4147 1.86347 19.513 1.9848 19.632 2.08367C20.5712 2.81685 21.3366 3.74862 21.8735 4.81227C22.4104 5.87591 22.7055 7.04512 22.7377 8.23616C22.7055 9.4272 22.4104 10.5964 21.8735 11.66C21.3366 12.7237 20.5712 13.6555 19.632 14.3886C19.3918 14.5883 19.2407 14.8753 19.212 15.1863C19.1833 15.4974 19.2794 15.8071 19.4791 16.0473C19.6787 16.2876 19.9657 16.4387 20.2767 16.4673C20.5878 16.496 20.8975 16.4 21.1378 16.2003C22.3443 15.2475 23.3247 14.0391 24.0081 12.6619C24.6916 11.2848 25.0612 9.77328 25.0904 8.23616C25.0612 6.69903 24.6916 5.1875 24.0081 3.81038C23.3247 2.43326 22.3443 1.22481 21.1378 0.272038Z" fill="white"/>
</svg>
