<svg width="19" height="21" viewBox="0 0 19 21" fill="none" xmlns="http://www.w3.org/2000/svg">
<g clip-path="url(#clip0_263_209)">
<path d="M11.4688 14.5781V17.0508C11.4688 17.5742 11.3164 17.8359 11.0117 17.8359C10.832 17.8359 10.6562 17.75 10.4844 17.5781V14.0508C10.6562 13.8789 10.832 13.793 11.0117 13.793C11.3164 13.793 11.4688 14.0547 11.4688 14.5781ZM15.4297 14.5898V15.1289H14.375V14.5898C14.375 14.0586 14.5508 13.793 14.9023 13.793C15.2539 13.793 15.4297 14.0586 15.4297 14.5898ZM4.10938 12.0352H5.36328V10.9336H1.70703V12.0352H2.9375V18.7031H4.10938V12.0352ZM7.48438 18.7031H8.52734V12.9141H7.48438V17.3438C7.25 17.6719 7.02734 17.8359 6.81641 17.8359C6.67578 17.8359 6.59375 17.7539 6.57031 17.5898C6.5625 17.5664 6.55859 17.4297 6.55859 17.1797V12.9141H5.51562V17.4961C5.51562 17.8789 5.54688 18.1641 5.60938 18.3516C5.70312 18.6406 5.92969 18.7852 6.28906 18.7852C6.66406 18.7852 7.0625 18.5469 7.48438 18.0703V18.7031ZM12.5117 16.9688V14.6602C12.5117 14.0898 12.4766 13.7031 12.4062 13.5C12.2734 13.0625 11.9961 12.8438 11.5742 12.8438C11.1836 12.8438 10.8203 13.0547 10.4844 13.4766V10.9336H9.44141V18.7031H10.4844V18.1406C10.8359 18.5703 11.1992 18.7852 11.5742 18.7852C11.9961 18.7852 12.2734 18.5703 12.4062 18.1406C12.4766 17.9297 12.5117 17.5391 12.5117 16.9688ZM16.4727 16.8516V16.6992H15.4062C15.4062 17.0977 15.3984 17.3359 15.3828 17.4141C15.3281 17.6953 15.1719 17.8359 14.9141 17.8359C14.5547 17.8359 14.375 17.5664 14.375 17.0273V16.0078H16.4727V14.8008C16.4727 14.1836 16.3672 13.7305 16.1562 13.4414C15.8516 13.043 15.4375 12.8438 14.9141 12.8438C14.3828 12.8438 13.9648 13.043 13.6602 13.4414C13.4414 13.7305 13.332 14.1836 13.332 14.8008V16.8281C13.332 17.4453 13.4453 17.8984 13.6719 18.1875C13.9766 18.5859 14.3984 18.7852 14.9375 18.7852C15.5 18.7852 15.9219 18.5781 16.2031 18.1641C16.3438 17.9531 16.4258 17.7422 16.4492 17.5312C16.4648 17.4609 16.4727 17.2344 16.4727 16.8516ZM9.34766 6.15234V3.69141C9.34766 3.15234 9.17969 2.88281 8.84375 2.88281C8.50781 2.88281 8.33984 3.15234 8.33984 3.69141V6.15234C8.33984 6.69922 8.50781 6.97266 8.84375 6.97266C9.17969 6.97266 9.34766 6.69922 9.34766 6.15234ZM17.7734 14.9531C17.7734 16.7812 17.6719 18.1484 17.4688 19.0547C17.3594 19.5156 17.1328 19.9023 16.7891 20.2148C16.4453 20.5273 16.0469 20.707 15.5938 20.7539C14.1562 20.918 11.9883 21 9.08984 21C6.19141 21 4.02344 20.918 2.58594 20.7539C2.13281 20.707 1.73242 20.5273 1.38477 20.2148C1.03711 19.9023 0.8125 19.5156 0.710938 19.0547C0.507812 18.1797 0.40625 16.8125 0.40625 14.9531C0.40625 13.125 0.507812 11.7578 0.710938 10.8516C0.820312 10.3906 1.04688 10.0039 1.39062 9.69141C1.73438 9.37891 2.13672 9.19531 2.59766 9.14062C4.02734 8.98438 6.19141 8.90625 9.08984 8.90625C11.9883 8.90625 14.1562 8.98438 15.5938 9.14062C16.0469 9.19531 16.4473 9.37891 16.7949 9.69141C17.1426 10.0039 17.3672 10.3906 17.4688 10.8516C17.6719 11.7266 17.7734 13.0938 17.7734 14.9531ZM6.07812 0H7.27344L5.85547 4.67578V7.85156H4.68359V4.67578C4.57422 4.09766 4.33594 3.26953 3.96875 2.19141C3.67969 1.38672 3.42578 0.65625 3.20703 0H4.44922L5.28125 3.08203L6.07812 0ZM10.4141 3.90234V5.95312C10.4141 6.58594 10.3047 7.04688 10.0859 7.33594C9.78906 7.73438 9.375 7.93359 8.84375 7.93359C8.32031 7.93359 7.91016 7.73438 7.61328 7.33594C7.39453 7.03906 7.28516 6.57812 7.28516 5.95312V3.90234C7.28516 3.27734 7.39453 2.82031 7.61328 2.53125C7.91016 2.13281 8.32031 1.93359 8.84375 1.93359C9.375 1.93359 9.78906 2.13281 10.0859 2.53125C10.3047 2.82031 10.4141 3.27734 10.4141 3.90234ZM14.3398 2.00391V7.85156H13.2734V7.20703C12.8594 7.69141 12.457 7.93359 12.0664 7.93359C11.707 7.93359 11.4766 7.78906 11.375 7.5C11.3125 7.3125 11.2812 7.01953 11.2812 6.62109V2.00391H12.3477V6.30469C12.3477 6.5625 12.3516 6.69922 12.3594 6.71484C12.3828 6.88672 12.4648 6.97266 12.6055 6.97266C12.8164 6.97266 13.0391 6.80469 13.2734 6.46875V2.00391H14.3398Z" fill="white"/>
</g>
<defs>
<clipPath id="clip0_263_209">
<rect width="18" height="21" fill="white" transform="translate(0.0898438)"/>
</clipPath>
</defs>
</svg>
